<?xml version="1.0" standalone="no"?>
<!DOCTYPE svg PUBLIC "-//W3C//DTD SVG 20010904//EN"
 "http://www.w3.org/TR/2001/REC-SVG-20010904/DTD/svg10.dtd">
<svg version="1.0" xmlns="http://www.w3.org/2000/svg"
 width="300.000000pt" height="81.000000pt" viewBox="0 0 300.000000 81.000000"
 preserveAspectRatio="xMidYMid meet">

<g transform="translate(0.000000,81.000000) scale(0.100000,-0.100000)"
fill="#000000" stroke="none">
<path d="M571 785 c-33 -15 -79 -51 -118 -91 l-64 -65 -87 -15 c-118 -21 -199
-42 -244 -65 -39 -20 -63 -51 -55 -72 3 -7 10 1 16 16 15 38 74 63 219 93 64
13 122 24 129 24 8 0 0 -25 -21 -67 -63 -126 -74 -216 -31 -258 13 -14 35 -25
48 -25 35 0 106 49 166 116 60 67 61 58 4 -67 -34 -75 -36 -77 -106 -115 -93
-50 -180 -133 -175 -165 2 -19 10 -25 34 -27 50 -5 120 50 185 146 40 60 68
91 100 109 48 27 109 81 109 97 0 6 -17 -6 -37 -25 -35 -33 -86 -69 -97 -69
-2 0 12 39 31 87 54 131 58 215 7 125 -55 -95 -165 -192 -219 -192 -43 0 -55
16 -55 72 0 55 27 129 76 210 32 53 38 57 87 67 148 32 247 86 247 137 0 49
-66 57 -149 19z m136 -10 c13 -35 -74 -91 -186 -120 -35 -9 -66 -13 -70 -10
-9 10 86 93 138 120 53 28 109 32 118 10z m-244 -606 c-50 -87 -150 -170 -188
-155 -23 8 -18 22 21 66 33 36 156 120 177 120 5 0 0 -14 -10 -31z"/>
<path d="M829 639 c-16 -16 -19 -28 -15 -53 5 -28 2 -34 -24 -49 -16 -10 -30
-23 -30 -29 0 -6 10 -3 23 6 35 26 48 29 59 18 7 -7 4 -19 -11 -38 -27 -34
-28 -94 -3 -117 39 -35 132 -11 252 67 59 38 68 42 77 27 9 -13 14 -14 32 -3
26 15 31 15 31 -2 0 -41 107 -32 221 18 12 5 14 0 11 -27 -8 -71 60 -74 194
-7 43 22 80 40 81 40 1 0 3 -15 5 -32 3 -31 5 -33 47 -36 33 -3 60 5 115 31
65 31 74 33 83 18 9 -14 14 -14 33 -3 19 12 24 11 37 -7 20 -29 84 -28 170 4
37 13 69 23 70 21 2 -1 -19 -29 -47 -60 -71 -81 -65 -100 13 -48 37 24 111 62
122 62 2 0 5 -12 7 -27 2 -24 8 -29 36 -31 41 -4 91 15 178 68 75 46 74 45 74
25 0 -17 18 -19 40 -6 10 7 18 4 28 -11 13 -18 22 -20 77 -16 61 5 185 52 185
69 0 12 1 12 -60 -17 -69 -33 -166 -52 -182 -36 -8 8 -9 18 0 36 6 13 8 27 5
30 -17 16 -72 3 -119 -28 -87 -59 -171 -99 -211 -100 -39 -1 -44 7 -28 47 10
25 -17 22 -77 -8 -27 -14 -52 -25 -54 -25 -2 0 9 19 26 42 27 37 40 78 24 78
-3 0 -38 -16 -78 -35 -73 -35 -160 -53 -185 -37 -11 8 -10 14 3 34 9 14 13 28
9 31 -14 15 -70 6 -103 -16 -55 -36 -154 -77 -188 -77 -42 0 -49 16 -22 52 12
17 18 34 13 39 -4 4 -61 -18 -127 -51 -117 -59 -158 -71 -171 -49 -11 17 3 54
31 82 29 29 55 37 33 10 -12 -14 -12 -16 1 -11 20 6 25 34 7 41 -8 3 -54 -15
-103 -39 -72 -36 -100 -45 -149 -47 -64 -2 -65 -1 -50 49 5 17 2 22 -19 26
-28 6 -28 6 -153 -73 -104 -66 -177 -95 -215 -86 -34 9 -45 41 -24 70 9 12 23
32 32 44 15 21 15 25 -1 49 -15 23 -15 27 -1 43 20 22 21 67 1 75 -9 3 -25 -4
-36 -15z m41 -18 c0 -24 -26 -47 -33 -29 -5 16 10 48 23 48 6 0 10 -8 10 -19z
m350 -111 c0 -5 -10 -15 -22 -21 -23 -12 -23 -12 -4 10 21 23 26 26 26 11z
m820 -5 c0 -2 -10 -10 -22 -16 -21 -11 -22 -11 -9 4 13 16 31 23 31 12z m680
-10 c-7 -8 -17 -15 -22 -15 -6 0 -5 7 2 15 7 8 17 15 22 15 6 0 5 -7 -2 -15z"/>
<path d="M2057 643 c-10 -10 -8 -53 2 -53 10 0 21 24 21 46 0 15 -12 19 -23 7z"/>
<path d="M1800 590 c0 -5 5 -10 10 -10 6 0 10 5 10 10 0 6 -4 10 -10 10 -5 0
-10 -4 -10 -10z"/>
</g>
</svg>
